<svg width="124" height="110" viewBox="0 0 124 110" fill="none" xmlns="http://www.w3.org/2000/svg">
<path fill-rule="evenodd" clip-rule="evenodd" d="M30.4019 9.85246H23.2452C22.5581 9.85246 21.9856 9.33559 21.9283 8.64644V6.92357V5.2007V1.41038C21.9283 0.663799 22.5009 0.0895081 23.2452 0.0895081H30.4019C31.1462 0.0895081 31.7188 0.663799 31.7188 1.41038V5.14327V6.86614V8.58902C31.6615 9.27816 31.089 9.85246 30.4019 9.85246ZM17.9206 33.9152V27.0812C17.9206 25.0712 16.7183 23.4057 15.0007 22.6017C14.5426 22.4294 14.2563 22.0274 14.2563 21.5106V10.3693C14.2563 9.39301 15.0579 8.589 16.0312 8.589H18.8939C19.352 8.589 19.6382 8.87615 19.7527 9.27815C20.0963 10.8862 21.5276 12.0922 23.2452 12.0922H30.402C32.1196 12.0922 33.551 10.8862 33.8945 9.27815C34.009 8.87615 34.3525 8.589 34.7533 8.589H38.7038C39.6772 8.589 40.4787 9.39301 40.4787 10.3693V27.4257V33.0538C40.4787 34.0301 39.6772 34.8341 38.7038 34.8341H35.1541H18.8367C18.3214 34.8341 17.9206 34.4321 17.9206 33.9152ZM101.34 74.173C103.229 72.0482 106.435 71.9333 108.439 73.9433L122.008 87.554C123.898 89.4492 123.898 92.5504 122.008 94.4455L108.439 108.056C107.523 109.033 106.264 109.492 105.004 109.492C103.802 109.492 102.542 109.033 101.626 108.114C99.6793 106.218 99.7939 102.945 101.683 101.05L106.836 95.8812H71.4531C48.8377 95.8812 30.1156 77.7337 29.9439 55.1066C29.9439 49.536 31.0317 44.1376 33.0356 39.2561C33.2646 38.6244 33.8372 38.2799 34.4669 38.2799H38.7037C41.5665 38.2799 43.9139 35.9253 43.9139 33.0538V24.8989C43.9139 24.3246 44.1429 23.7503 44.6009 23.4057C51.7004 17.3757 60.9183 13.7576 70.9378 13.7576H102.199C102.599 13.7576 103 13.8151 103.401 13.9299C115.081 15.0785 124.184 25.0712 123.955 37.1313C123.726 49.6508 113.249 59.5286 100.767 59.5286H72.1974L77.522 64.8695C79.4114 66.7647 79.5259 70.0381 77.5793 71.9333C76.6632 72.8522 75.4036 73.3116 74.2013 73.3116C72.9417 73.3116 71.7393 72.8522 70.766 71.8759L57.1968 58.2652C55.3074 56.37 55.3074 53.2688 57.1968 51.3737L70.8233 37.763C72.7699 35.753 76.0334 35.8678 77.9228 37.9927C79.6404 39.9453 79.4114 42.9316 77.5793 44.7693L72.5409 49.8231H100.824C107.924 49.8231 113.936 44.3099 114.222 37.2461C114.508 29.7803 108.554 23.6354 101.168 23.6354C101.053 23.6354 100.953 23.6211 100.853 23.6067C100.753 23.5924 100.653 23.578 100.538 23.578H70.8805C53.5326 23.578 39.3908 37.8778 39.6771 55.3363C39.9633 72.5076 54.2196 86.1183 71.3386 86.1183H106.836L101.683 80.9497C99.8511 79.1119 99.6221 76.1256 101.34 74.173ZM23.3024 47.6982H18.3213C17.348 47.6982 16.6037 48.4448 16.6037 49.4211V54.36C16.6037 55.3363 17.348 56.0829 18.3213 56.0829H23.2452C24.2185 56.0829 24.9628 55.3363 24.9628 54.36V49.4211C24.9628 48.5022 24.2185 47.6982 23.3024 47.6982ZM46.8339 9.73759H53.9907C54.6777 9.73759 55.193 9.22073 55.193 8.53158V1.41037C55.193 0.72122 54.6777 0.204358 53.9907 0.204358H46.8339C46.1468 0.204358 45.6316 0.72122 45.6316 1.41037V8.58901C45.6316 9.22073 46.1468 9.73759 46.8339 9.73759ZM13.1112 25.1286C13.5692 25.1286 13.97 25.3009 14.3135 25.5306C14.7716 25.8752 15.0578 26.4495 15.1151 27.0812V34.547V36.4421V38.2224V38.3373C15.1151 39.4284 14.2563 40.2899 13.1684 40.2899H1.94664C0.858811 40.2899 0 39.4284 0 38.3373V27.0812C0 25.99 0.858811 25.1286 1.94664 25.1286H10.8783H12.5959H13.1112Z" fill="url(#paint0_linear)"/>
<defs>
<linearGradient id="paint0_linear" x1="-25.6183" y1="0.0895171" x2="198.176" y2="23.6993" gradientUnits="userSpaceOnUse">
<stop stop-color="#2F55DE"/>
<stop offset="1" stop-color="#EA5332"/>
</linearGradient>
</defs>
</svg>