<svg width="450" height="110" viewBox="0 0 450 110" fill="none" xmlns="http://www.w3.org/2000/svg">
<g clip-path="url(#clip0)">
<path fill-rule="evenodd" clip-rule="evenodd" d="M30.4019 9.85246H23.2452C22.5581 9.85246 21.9856 9.33559 21.9283 8.64644V6.92357V5.2007V1.41038C21.9283 0.663799 22.5009 0.0895081 23.2452 0.0895081H30.4019C31.1462 0.0895081 31.7188 0.663799 31.7188 1.41038V5.14327V6.86614V8.58902C31.6615 9.27816 31.089 9.85246 30.4019 9.85246ZM17.9206 33.9152V27.0812C17.9206 25.0712 16.7183 23.4057 15.0007 22.6017C14.5426 22.4294 14.2563 22.0274 14.2563 21.5106V10.3693C14.2563 9.39301 15.0579 8.589 16.0312 8.589H18.8939C19.352 8.589 19.6382 8.87615 19.7527 9.27815C20.0963 10.8862 21.5276 12.0922 23.2452 12.0922H30.402C32.1196 12.0922 33.551 10.8862 33.8945 9.27815C34.009 8.87615 34.3525 8.589 34.7533 8.589H38.7038C39.6772 8.589 40.4787 9.39301 40.4787 10.3693V27.4257V33.0538C40.4787 34.0301 39.6772 34.8341 38.7038 34.8341H35.1541H18.8367C18.3214 34.8341 17.9206 34.4321 17.9206 33.9152ZM101.34 74.173C103.229 72.0482 106.435 71.9333 108.439 73.9433L122.008 87.554C123.898 89.4492 123.898 92.5504 122.008 94.4455L108.439 108.056C107.523 109.033 106.264 109.492 105.004 109.492C103.802 109.492 102.542 109.033 101.626 108.114C99.6793 106.218 99.7939 102.945 101.683 101.05L106.836 95.8812H71.4531C48.8377 95.8812 30.1156 77.7337 29.9439 55.1066C29.9439 49.536 31.0317 44.1376 33.0356 39.2561C33.2646 38.6244 33.8372 38.2799 34.4669 38.2799H38.7037C41.5665 38.2799 43.9139 35.9253 43.9139 33.0538V24.8989C43.9139 24.3246 44.1429 23.7503 44.6009 23.4057C51.7004 17.3757 60.9183 13.7576 70.9378 13.7576H102.199C102.599 13.7576 103 13.8151 103.401 13.9299C115.081 15.0785 124.184 25.0712 123.955 37.1313C123.726 49.6508 113.249 59.5286 100.767 59.5286H72.1974L77.522 64.8695C79.4114 66.7647 79.5259 70.0381 77.5793 71.9333C76.6632 72.8522 75.4036 73.3116 74.2013 73.3116C72.9417 73.3116 71.7393 72.8522 70.766 71.8759L57.1968 58.2652C55.3074 56.37 55.3074 53.2688 57.1968 51.3737L70.8233 37.763C72.7699 35.753 76.0334 35.8678 77.9228 37.9927C79.6404 39.9453 79.4114 42.9316 77.5793 44.7693L72.5409 49.8231H100.824C107.924 49.8231 113.936 44.3099 114.222 37.2461C114.508 29.7803 108.554 23.6354 101.168 23.6354C101.053 23.6354 100.953 23.6211 100.853 23.6067C100.753 23.5924 100.653 23.578 100.538 23.578H70.8805C53.5326 23.578 39.3908 37.8778 39.6771 55.3363C39.9633 72.5076 54.2196 86.1183 71.3386 86.1183H106.836L101.683 80.9497C99.8511 79.1119 99.6221 76.1256 101.34 74.173ZM23.3024 47.6982H18.3213C17.348 47.6982 16.6037 48.4448 16.6037 49.4211V54.36C16.6037 55.3363 17.348 56.0829 18.3213 56.0829H23.2452C24.2185 56.0829 24.9628 55.3363 24.9628 54.36V49.4211C24.9628 48.5022 24.2185 47.6982 23.3024 47.6982ZM46.8339 9.73759H53.9907C54.6777 9.73759 55.193 9.22073 55.193 8.53158V1.41037C55.193 0.72122 54.6777 0.204358 53.9907 0.204358H46.8339C46.1468 0.204358 45.6316 0.72122 45.6316 1.41037V8.58901C45.6316 9.22073 46.1468 9.73759 46.8339 9.73759ZM13.1112 25.1286C13.5692 25.1286 13.97 25.3009 14.3135 25.5306C14.7716 25.8752 15.0578 26.4495 15.1151 27.0812V34.547V36.4421V38.2224V38.3373C15.1151 39.4284 14.2563 40.2899 13.1684 40.2899H1.94664C0.858811 40.2899 0 39.4284 0 38.3373V27.0812C0 25.99 0.858811 25.1286 1.94664 25.1286H10.8783H12.5959H13.1112Z" fill="url(#paint0_linear)"/>
</g>
<path d="M173.328 78.5936C182.156 78.5936 187.783 73.356 188.377 65.8999H180.464C179.755 69.6737 177.033 71.8465 173.397 71.8465C168.228 71.8465 164.888 67.5238 164.888 60.3421C164.888 53.252 168.296 48.9979 173.397 48.9979C177.376 48.9979 179.824 51.5595 180.464 54.9445H188.377C187.806 47.3282 181.859 42.3194 173.282 42.3194C162.99 42.3194 156.495 49.7526 156.495 60.4794C156.495 71.1146 162.83 78.5936 173.328 78.5936ZM211.788 78.5936C222.08 78.5936 228.621 71.3433 228.621 60.4794C228.621 49.5925 222.08 42.3194 211.788 42.3194C201.496 42.3194 194.955 49.5925 194.955 60.4794C194.955 71.3433 201.496 78.5936 211.788 78.5936ZM211.834 71.9609C206.139 71.9609 203.348 66.8834 203.348 60.4565C203.348 54.0296 206.139 48.8835 211.834 48.8835C217.437 48.8835 220.228 54.0296 220.228 60.4565C220.228 66.8834 217.437 71.9609 211.834 71.9609ZM236.937 77.9074H245.216V57.2545C245.216 52.7945 248.578 49.6383 253.13 49.6383C254.525 49.6383 256.263 49.8899 256.972 50.1186V42.5024C256.218 42.3651 254.914 42.2736 253.999 42.2736C249.974 42.2736 246.611 44.5608 245.331 48.6319H244.965V42.7768H236.937V77.9074ZM277.867 78.5936C286.055 78.5936 291.681 74.5911 293.145 68.4844L285.415 67.6153C284.294 70.5886 281.549 72.1438 277.981 72.1438C272.629 72.1438 269.084 68.6216 269.016 62.6064H293.488V60.0677C293.488 47.7399 286.078 42.3194 277.432 42.3194C267.369 42.3194 260.805 49.7069 260.805 60.548C260.805 71.572 267.277 78.5936 277.867 78.5936ZM269.039 57.0258C269.29 52.5429 272.607 48.7692 277.547 48.7692C282.304 48.7692 285.506 52.2456 285.552 57.0258H269.039ZM318.02 77.9074C332.291 77.9074 340.754 69.079 340.754 54.4413C340.754 39.8493 332.291 31.0666 318.34 31.0666H302.147V77.9074H318.02ZM310.632 70.5657V38.4084H317.859C327.374 38.4084 332.337 43.7146 332.337 54.4413C332.337 65.2138 327.374 70.5657 317.608 70.5657H310.632ZM353.603 77.9074L357.469 66.3573H375.08L378.968 77.9074H388.025L371.512 31.0666H361.037L344.546 77.9074H353.603ZM359.756 59.5416L366.091 40.6726H366.457L372.793 59.5416H359.756ZM435.136 54.487C435.136 39.3461 425.896 30.4262 413.614 30.4262C401.309 30.4262 392.092 39.3461 392.092 54.487C392.092 69.6051 401.309 78.5478 413.614 78.5478C425.896 78.5478 435.136 69.628 435.136 54.487ZM426.605 54.487C426.605 65.1451 421.253 70.9316 413.614 70.9316C405.998 70.9316 400.623 65.1451 400.623 54.487C400.623 43.8289 405.998 38.0424 413.614 38.0424C421.253 38.0424 426.605 43.8289 426.605 54.487Z" fill="url(#paint1_linear)"/>
<defs>
<linearGradient id="paint0_linear" x1="-25.6183" y1="0.0895175" x2="198.176" y2="23.6993" gradientUnits="userSpaceOnUse">
<stop stop-color="#2F55DE"/>
<stop offset="1" stop-color="#EA5332"/>
</linearGradient>
<linearGradient id="paint1_linear" x1="146.419" y1="12.8278" x2="459.228" y2="69.352" gradientUnits="userSpaceOnUse">
<stop stop-color="#B7BAFC"/>
<stop offset="1" stop-color="white"/>
</linearGradient>
<clipPath id="clip0">
<rect width="124.012" height="109.46" fill="white" transform="translate(0 0.0895081)"/>
</clipPath>
</defs>
</svg>
